<svg width="104" height="103" viewBox="0 0 104 103" fill="none" xmlns="http://www.w3.org/2000/svg">
<path d="M103.785 0H0.928223V102.857H103.785V0Z" fill="white"/>
<path d="M84.8956 86.5293H43.7261V81.7783H80.1445V70.172H60.093V65.4209H84.8956V86.5293Z" fill="#19987D"/>
<path d="M38.9747 25.8301H34.2236V86.5275H38.9747V25.8301Z" fill="#54598B"/>
<path d="M18.952 53.9278C19.7471 57.52 21.551 60.8106 24.1517 63.413C26.7524 66.0154 30.0419 67.8215 33.6336 68.619C32.8342 65.0287 31.0288 61.7404 28.4288 59.1387C25.8288 56.537 22.5417 54.7296 18.952 53.9278V53.9278ZM38.9464 73.9223L36.2424 73.7509C30.4022 73.3724 24.8994 70.8815 20.7611 66.7432C16.6228 62.6049 14.1319 57.102 13.7534 51.2619L13.582 48.5674L16.286 48.7388C22.1245 49.1195 27.6251 51.6114 31.7614 55.7495C35.8977 59.8875 38.3873 65.3891 38.7655 71.2277L38.9464 73.9223Z" fill="#54598B"/>
<path d="M50.5812 40.589C52.115 39.994 53.7125 39.5786 55.3418 39.3513V16.3291H34.2144V21.0897H50.5812V40.589Z" fill="#86BC25"/>
<path d="M50.7144 53.1187C50.6723 53.1655 50.6278 53.21 50.5811 53.252V70.1711H55.3416V46.292C54.2583 48.8448 52.6901 51.1631 50.7239 53.1187" fill="#86BC25"/>
<path d="M44.7638 47.1591C42.1537 49.7699 40.3463 53.0741 39.5557 56.6802C43.1477 55.8867 46.438 54.0831 49.0391 51.482C51.6402 48.8809 53.4438 45.5905 54.2374 41.9986C50.6321 42.786 47.328 44.5901 44.7162 47.1972L44.7638 47.1591ZM34.2144 61.9835L34.3953 59.2795C34.7729 53.4391 37.2638 47.9359 41.4028 43.7981V43.7981C45.5377 39.6618 51.0381 37.1739 56.8747 36.8L59.5788 36.6191L59.4074 39.3232C59.0306 45.163 56.54 50.6658 52.4012 54.803C48.2623 58.9401 42.7584 61.4283 36.9184 61.8026L34.2144 61.9835Z" fill="#54598B"/>
</svg>
